<?xml version="1.0" encoding="utf-8"?>
<svg version="1.1" id="Layer_1" xmlns="http://www.w3.org/2000/svg" xmlns:xlink="http://www.w3.org/1999/xlink" x="0px" y="0px"
	 viewBox="0 0 800 795" xml:space="preserve">
<g>
	<path d="M365,593.83c-6.91,0-13.15,0-19.66,0c2.72,54.63-12.47,102.79-47.22,144.49c-23.07,27.69-55.05,47.76-77.46,55.81
		c-1.36-9.98-2.71-19.87-4-29.32c-9.44,0-18.56-0.18-27.68,0.05c-10.68,0.27-21.35,0.79-32.01,1.45c-3.74,0.23-5.23-0.79-5.63-4.76
		c-1.01-10.13-2.55-20.21-3.9-30.31c-0.17-1.29-0.5-2.56-0.84-4.22c-22.35,0.84-44.48,1.67-67.33,2.52
		c-1.77-12.96-3.52-25.76-5.37-39.21c-24.49,0.94-48.74,1.87-73.92,2.83c13.3-21.12,26.23-41.65,39.45-62.66
		c-10.35-8-20.61-15.93-31.32-24.21c11.92-18.95,23.78-37.82,36.03-57.29c-10.43-8.08-20.78-16.09-31.35-24.28
		c11.49-18.26,22.76-36.18,34.32-54.55c-8.08-6.25-16.07-12.43-24.13-18.66c50.91-41.91,146.96-66.06,235.68-7.99
		c3.36-5.3,6.71-10.6,10.43-16.47c-1.79-1.11-3.38-2.17-5.04-3.12c-42.91-24.79-85.82-49.59-128.75-74.34
		c-9.31-5.37-17.03-12.28-22.25-21.79c-12.6-22.95,0-45.74,26.15-47.11c10.99-0.57,21.08,2.61,30.54,8.08
		c43.05,24.89,86.1,49.76,129.16,74.63c1.56,0.9,3.16,1.71,5.19,2.79c3.09-5.82,6.03-11.37,8.9-16.79
		c-81.85-45.59-118.84-114.8-111.9-209.13c10.41,4.26,19.7,8.06,29.39,12.02c10.04-19.02,19.97-37.86,30.08-57
		c12.33,5.06,24.31,9.97,36.66,15.04c10.54-19.99,20.95-39.72,31.57-59.86c12.26,5.02,24.24,9.92,36.63,14.99
		C376.89,43.76,388.21,22.28,399.96,0c11.71,22.24,23.01,43.69,34.49,65.49c12.21-5.01,24.05-9.87,36.6-15.02
		c10.49,19.87,20.97,39.71,31.61,59.87c12.26-5.03,24.24-9.95,36.65-15.04c10.06,19.07,20,37.9,30.09,57.02
		c9.52-3.92,18.72-7.7,28.7-11.81c5.24,43.59-1.65,84.26-22.12,122.45c-20.43,38.12-50.55,66.36-89.38,85.88
		c3.13,5.93,6.06,11.48,9.21,17.46c1.94-1.08,3.52-1.93,5.06-2.83c43.2-24.95,86.39-49.93,129.61-74.86
		c11.33-6.54,23.4-9.71,36.51-7.18c19.22,3.7,29.22,20.64,22.99,39.2c-4.36,13.01-13.45,22.04-25.1,28.77
		c-42.92,24.78-85.83,49.57-128.74,74.36c-1.58,0.91-3.14,1.86-5.3,3.14c3.51,5.6,6.91,11.01,10.53,16.77
		c43.49-28.39,90.65-39.73,141.88-32.49c38.55,5.44,71.32,22.23,93.92,40.2c-8.06,6.27-15.99,12.45-24.24,18.86
		c5.8,9.24,11.45,18.26,17.11,27.26c5.59,8.9,11.21,17.78,17.17,27.24c-10.44,8.09-20.77,16.1-31.36,24.3
		c12.12,19.27,24,38.15,36.03,57.29c-10.54,8.15-20.79,16.08-31.31,24.21c13.11,20.84,26.04,41.39,39.44,62.68
		c-25.09-0.98-49.3-1.92-73.92-2.88c-1.81,13.28-3.56,26.11-5.35,39.24c-15.64-0.6-30.8-1.18-45.96-1.75
		c-5.67-0.21-11.36-0.18-17.01-0.7c-3.65-0.33-4.96,0.81-5.38,4.46c-1.29,11.42-2.95,22.79-4.53,34.73
		c-21.42-0.82-42.53-1.63-64.35-2.46c-1.39,10.04-2.76,20.04-4.15,30.11c-55.88-19.98-131.01-89.83-124.81-200.07
		c-6.24-0.28-12.48-0.56-19.65-0.88c0,2.23,0,4.13,0,6.04c0,49.61-0.01,99.23,0.01,148.84c0,11.09-2.28,21.57-8.36,30.99
		c-13.91,21.54-39.48,21.46-53.3-0.17c-5.94-9.29-8.24-19.6-8.24-30.53c0-49.45,0-98.89,0-148.34C365,597.87,365,595.89,365,593.83z
		 M558.98,169.07c2.33,20.57-11.91,61.22-30.37,85.69c-30.83,40.88-72.3,61.98-123.3,65.29c0,16.43,0,32.7,0,49.13
		c27.14,0,53.99,0,81.5,0c-4.68-8.83-9.02-17.02-13.6-25.67c37.82-16.06,67.71-40.69,88.52-75.77
		c20.68-34.87,30.91-72.31,28.16-113.81c-8.79,3.6-16.72,6.84-24.81,10.15c-10.19-19.31-20.12-38.13-30.07-57
		c-12.63,5.17-24.6,10.08-36.67,15.02c-10.67-20.23-21.07-39.95-31.57-59.83c-12.59,5.14-24.56,10.03-36.63,14.96
		c-10.1-19.16-19.94-37.8-30.22-57.29c-10.38,19.68-20.22,38.36-30.21,57.3c-12.32-5.04-24.28-9.93-36.63-14.98
		c-10.62,20.14-21.03,39.87-31.56,59.84c-12.3-5.04-24.29-9.95-36.67-15.02c-10.07,19.1-20.01,37.93-30.07,57
		c-8.32-3.41-16.23-6.66-24.65-10.12c-2.32,26.25,1.48,50.85,9.81,74.7c18.74,53.68,53.8,92.53,106.72,114.85
		c-4.69,8.86-9.03,17.05-13.57,25.64c28,0,55.22,0,82.28,0c0-16.76,0-33.03,0-49.27c-98.91-4.45-153.94-86.66-154.48-150.66
		c1.08-0.29,2.19-0.67,3.32-0.87c1.61-0.27,3.25-0.41,5.27-0.65c3.84,38.56,17.91,72.59,45.7,99.51
		c27.68,26.82,61.54,40.66,100.23,42.97c0-13.58,0-26.32,0-39.04c-86.59-4.97-125.03-80.56-122.33-122.92
		c2.69-0.18,5.43-0.37,8.34-0.57c2.8,30.61,13.61,57.49,35.07,78.87c21.54,21.45,48.26,32.6,79.01,34.81c0-15.05,0-29.48,0-44.2
		c-23.93-1.78-45.12-9.81-63.03-25.63c-17.85-15.77-28.88-35.42-33.32-59.21c3.34-0.9,6.17-1.67,9.33-2.53
		c5.06,21.08,13.7,39.88,30.17,53.98c16.25,13.91,35.21,21.67,56.81,23.4c0-14.3,0-28.06,0-41.94c-32-3.51-55.41-18.96-70.02-47.94
		c2.38-1.49,4.19-2.65,6.03-3.76c0.83-0.5,1.75-0.86,2.93-1.44c11.82,26.51,33.23,39.08,61.15,43.12c0-13.31,0-26.11,0-39.23
		c-14.71-1.82-28.07-6.69-39.3-17.12c2.01-2.71,3.77-5.08,5.72-7.72c10.03,7.91,20.79,13.15,33.98,14.54c0-15.52,0-30.75,0-46.05
		c3.32,0,5.92,0,9.08,0c0,15.38,0,30.48,0,45.84c12.74-1.33,23.1-6.71,32.92-14.29c1.98,2.71,3.78,5.18,5.69,7.79
		c-11.16,10.08-24.04,14.99-38.31,16.9c0,13.12,0,25.89,0,38.67c23.05-0.35,43.38-14.59,60.63-42.49c2.76,1.72,5.52,3.43,8.5,5.29
		c-14.61,28.82-37.86,44.2-69.11,47.83c0,14.15,0,27.93,0,41.93c17.32-1.48,32.75-7.22,46.96-16.52
		c21.98-14.38,32.98-35.95,39.22-60.84c3.27,0.94,6.09,1.75,9.2,2.64c-3.35,18.58-10.96,34.66-22.94,48.63
		c-19.03,22.17-43.54,33.6-72.42,36.15c0,14.77,0,29.21,0,43.64c18.4,1.08,48.59-10.02,68.38-25.74
		c27.93-22.17,40.87-52.31,44.91-87.41c2.82,0.21,5.55,0.42,8.9,0.67c-0.6,23.89-7.65,45.36-20.6,64.73
		c-24.15,36.13-58.53,54.91-101.52,58.15c0,13.03,0,25.78,0,38.92c32.16-1.95,60.79-12.4,86-31.58
		c36.47-27.75,53.84-66.04,59.17-110.99C553.62,168.1,556.35,168.59,558.98,169.07z M575.41,754.28
		c21.61,0.81,42.85,1.61,64.33,2.42c1.85-13.48,3.6-26.29,5.35-39.06c3.32,0,5.98-0.09,8.63,0.01c18.01,0.69,36.03,1.32,54.03,2.22
		c3.8,0.19,5.26-0.85,5.69-4.72c1.1-10.12,2.74-20.18,3.91-30.3c0.36-3.08,1.19-4.36,4.58-4.11c8.49,0.62,17,1.03,25.5,1.17
		c11.41,0.19,22.83,0.05,34.48,0.05c-11-17.49-22.24-35.36-33.7-53.57c10.55-8.17,20.89-16.19,31.3-24.25
		c-12.23-19.45-24.1-38.32-36.03-57.28c10.69-8.27,20.94-16.2,31.36-24.26c-11.54-18.33-22.82-36.24-34.32-54.51
		c6.99-5.46,13.84-10.81,21.13-16.51c-29.79-20.07-61.93-29.92-96.58-32.12c-46.56-2.96-88.32,10.08-125.75,38.5
		c-5.22-8.3-10.26-16.3-15.76-25.05c-14.02,24.3-27.65,47.92-41.46,71.84c14.71,8.5,28.81,16.64,42.89,24.78
		c51.11-80.85,148.72-91.89,208.33-58.76c-1.04,2.69-2.1,5.41-3.16,8.14c-96.25-42.28-169.29,10.42-196.13,55.85
		c11.09,6.4,22.17,12.81,33.24,19.2c46.62-71.32,130.18-69.29,167.91-44.85c-1.21,2.47-2.43,4.96-3.64,7.42
		c-75.18-33.4-132.16,5.3-155.39,42.56c12.63,7.29,25.24,14.58,37.93,21.9c13.74-20.19,31.32-34.51,53.99-42.08
		c22.56-7.54,45.05-7.25,67.85,0.8c-1,3.46-1.81,6.28-2.69,9.31c-20.78-6.19-41.38-8.02-61.81-0.79
		c-20.14,7.13-36.31,19.7-48.69,37.78c12.47,7.19,24.38,14.07,36.29,20.93c19.16-26.11,44.07-38.75,76.46-36.91
		c0,3.56,0,6.62,0,10.25c-28.7-2.83-50.32,9.31-67.78,31.69c11.66,6.74,22.84,13.19,34,19.64c9.14-12.3,20.04-21.13,34.52-25.74
		c1.35,3.1,2.52,5.79,3.82,8.78c-11.84,4.87-21.82,11.52-29.45,22.08c13.45,7.8,26.64,15.44,40.04,23.21
		c-1.72,2.91-3.12,5.29-4.68,7.94c-13.55-7.81-26.64-15.35-39.87-22.97c-5.25,11.7-5.5,23.43-4.15,35.63
		c-3.33,0.36-6.24,0.68-9.47,1.04c-3.04-14.66-1.05-28.28,4.62-41.88c-11.18-6.46-22.24-12.86-33.93-19.62
		c-10.26,26.19-9.77,50.78,7.15,74.11c-3.29,1.75-6.02,3.21-9.14,4.87c-17.62-26.96-19.35-54.73-6.73-84.01
		c-12.1-6.99-24.01-13.88-36.24-20.95c-7.3,15.19-10.04,30.76-9.5,47c0.9,27.08,14.04,48.13,32.58,65.92
		c-2.22,2.59-4.22,4.92-6.31,7.34c-15.33-13.15-25.86-28.9-31.76-47.69c-8.34-26.58-5.59-52.38,6.24-77.63
		c-12.81-7.4-25.3-14.61-38.16-22.03c-10.08,20.44-14.1,41.52-12.61,63.59c2.67,39.49,23.3,68.59,54.16,91.74
		c-1.77,2.52-3.36,4.8-4.93,7.03c-43.8-24.94-81.13-94.42-45.3-167.37c-11.02-6.37-22.07-12.76-33.58-19.42
		c-13.54,26.47-18.92,54.18-16.66,83.2c3.79,48.77,28.82,85.35,67.23,114.18c-2.01,2.43-3.87,4.68-5.88,7.11
		c-27.35-18.48-47.43-42.31-59.65-72.36c-18.91-46.49-15.94-92.23,6.31-137.14c-14.39-8.31-28.49-16.44-42.93-24.78
		c-13.72,23.79-27.16,47.09-40.61,70.4c0.29,0.54,0.58,1.07,0.87,1.61c9.38,0,18.77,0,28.35,0c-5.12,41.47,1.49,79.65,21.55,115.21
		c19.83,35.16,47.08,62.56,84.12,80.83C573.05,771.51,574.2,763.13,575.41,754.28z M56.5,546.82
		c-12.17,19.35-24.04,38.23-36.03,57.29c10.7,8.3,20.94,16.24,31.28,24.26c-11.53,18.32-22.76,36.19-34.29,54.52
		c1.48,0.14,2.11,0.26,2.73,0.24c17.18-0.65,34.36-1.23,51.54-2.02c10.64-0.49,10.49-0.61,11.69,9.81c1.1,9.56,2.56,19.07,3.92,29
		c22.84-0.86,45.08-1.69,67.56-2.53c1.84,13.43,3.6,26.24,5.38,39.28c21.79-0.83,42.91-1.64,64.28-2.46
		c1.26,9.04,2.43,17.5,3.68,26.49c27.85-13.29,49.77-32.25,67.76-55.79c31.56-41.28,44.59-87.82,37.84-140.72
		c10.07,0,19.41,0,29.85,0c-14.36-24.88-27.92-48.4-41.69-72.26c-14.71,8.52-28.91,16.74-43.08,24.94
		c43,81.63,8.8,171.38-52.86,209.76c-0.96-1.08-1.98-2.16-2.92-3.32c-0.91-1.12-1.74-2.31-2.76-3.69
		c31.58-22.63,53.92-51.87,63.3-89.46c9.34-37.42,4.33-73.66-13.07-108.55c-11.82,6.85-22.88,13.26-33.92,19.65
		c36.45,70.77,0.69,142.55-44.82,168.03c-1.56-2.4-3.14-4.82-4.7-7.21c65.95-47.72,61.8-117.43,40.58-155.7
		c-12.52,7.24-25.03,14.47-37.7,21.8c10.54,21.9,14.23,44.27,9.47,67.7c-4.75,23.36-16.28,42.76-33.92,57.92
		c-2.7-2.31-5.04-4.32-7.47-6.41c15.87-15,27.69-31.95,31.61-53.32c3.86-21.03,1.06-41.28-8.4-60.89
		c-12.49,7.24-24.41,14.14-36.22,20.99c13.06,29.95,11.39,57.89-6.46,85.02c-3.37-1.98-6.02-3.54-8.93-5.26
		c17.14-23.84,17.27-48.6,6.67-74.77c-11.68,6.75-22.77,13.16-33.95,19.63c6.02,13.93,8.28,27.91,4.91,42.91
		c-3.45-0.52-6.33-0.96-9.38-1.42c1.46-12.71,1.03-24.66-4.51-36.29c-13.5,7.78-26.58,15.32-39.97,23.04
		c-1.68-2.93-3.06-5.32-4.6-7.99c13.52-7.83,26.6-15.4,39.87-23.08c-7.55-10.25-17.37-16.6-28.85-21.34
		c1.38-3.12,2.62-5.91,3.91-8.81c14.38,4.72,25.09,13.42,33.94,24.97c11.36-6.57,22.42-12.96,33.94-19.62
		c-17.54-21.93-39.02-33.75-67.19-30.91c0-3.7,0-6.76,0-10.06c10.64-1.11,20.66,0,30.51,2.9c18.96,5.58,33.72,17.04,45.33,33.1
		c12.28-7.1,24.21-14,36.6-21.17c-28.95-37.25-65.37-49.54-110.32-36.05c-0.92-3.26-1.72-6.1-2.6-9.21
		c16.14-5.96,32.25-7.65,48.7-5.35c30.97,4.34,54.87,20.28,72.71,45.74c12.94-7.49,25.42-14.72,37.9-21.94
		c-11.48-19.22-34.22-37.96-57.95-46.99c-32.87-12.51-65.13-8.65-96.99,5.28c-1.29-2.7-2.49-5.21-3.89-8.14
		c23.11-12.34,47.43-16.84,72.9-13.93c40.59,4.64,71.89,24.86,94.8,58.7c11.17-6.46,22.24-12.87,33.67-19.48
		c-18.85-28.46-43.67-48.86-74.97-60.8c-40.92-15.62-81.2-11.27-121.14,6.04c-1.08-2.81-2.12-5.53-3.15-8.22
		c61.62-33.66,157.86-20.6,207.9,58.02c14.19-8.21,28.4-16.44,42.84-24.79c-13.77-23.85-27.18-47.09-40.98-70.99
		c-5.51,8.76-10.54,16.76-15.75,25.03c-32.75-24.83-69.07-38.37-109.82-38.86c-40.48-0.49-78.02,9.36-112.55,32.51
		c7.56,5.87,14.36,11.15,21.19,16.46c-11.57,18.38-22.86,36.3-34.33,54.52C35.64,530.68,45.91,538.62,56.5,546.82z M400.16,509.15
		c26.03-0.08,46.99-21.27,46.83-47.36c-0.16-25.67-21.42-46.86-47.02-46.87c-25.71-0.01-47.2,21.55-47.16,47.32
		C352.84,488.16,374.11,509.23,400.16,509.15z M395.32,566.62c0.13-0.92,0.33-1.72,0.33-2.51c0.02-11.85-0.14-23.7,0.12-35.55
		c0.08-3.68-1.87-3.97-4.52-4.35c-16.81-2.4-30.38-10.44-40.93-23.7c-0.8-1.01-1.7-1.95-2.74-3.14
		c-5.89,3.43-11.57,6.73-17.69,10.29c12.75,22.1,25.18,43.66,37.89,65.69C375.71,563.91,386.07,568.25,395.32,566.62z
		 M457.78,433.72c1.75,10.07,4.59,19.19,4.58,28.32c-0.01,9.27-2.84,18.54-4.56,28.5c4.83,2.78,10.54,6.07,16.65,9.59
		c12.73-22.02,25.21-43.61,38.02-65.77c-12.31-1.96-13.82-13.28-19.93-20.74C480.51,420.58,468.58,427.48,457.78,433.72z
		 M320.01,378.89c3.99,11.16-4.54,18.26-8.28,27.24c12.09,6.99,24.01,13.87,36.14,20.88c11.84-16.56,27.78-25.51,47.44-27.64
		c0-7.08,0-13.67,0-20.48C370.13,378.89,345.33,378.89,320.01,378.89z M405.4,524.82c0,14.39,0,28.02,0,42.2
		c4.9,0,9.64-0.62,14.13,0.17c4.53,0.8,8.82,2.99,13.58,4.71c11.82-20.52,24.06-41.75,36.54-63.41c-6.27-3.62-12.11-7-18.13-10.48
		C439.91,513.82,424.52,522.54,405.4,524.82z M451.72,426.12c12.09-6.99,24.01-13.88,36.14-20.9c-3.79-8.64-11.82-15.6-7.94-26.1
		c-25.14,0-49.84,0-74.47,0c0,7.09,0,13.69,0,20.2C427.95,403.7,435.8,408.23,451.72,426.12z M306.85,414.41
		c-5.59,7.98-7.78,18.17-19.2,20.12c12.7,21.96,25.01,43.23,37.45,64.73c6.31-3.65,12.03-6.95,17.99-10.39
		c-7.76-17.92-7.81-35.56,0.04-53.47C331.02,428.39,319.11,421.5,306.85,414.41z M395.31,783.83c0-12.8,0-25.14,0-37.68
		c-7.09,0-13.8,0-20.49,0C373.56,762.64,382.81,779.9,395.31,783.83z M123.56,297.43c5.76,3.33,11.08,6.41,16.4,9.48
		c5.43,3.14,10.87,6.27,16.61,9.59c3.67-6.36,7.07-12.23,10.44-18.07C152.88,288.96,133.95,288.4,123.56,297.43z M395.44,633.65
		c-7.22,0-13.96,0-20.73,0c0,9.21,0,18.09,0,26.82c7.21,0,13.95,0,20.97,0c0-7.94,0.01-15.44-0.01-22.94
		C395.67,636.4,395.54,635.25,395.44,633.65z M647.75,323.96c3.78,6.53,7.16,12.38,10.54,18.22c16.49-9.24,26.67-26.49,21.86-36.93
		C669.49,311.41,658.86,317.55,647.75,323.96z M395.36,576.21c-4.6,0-8.94-0.37-13.18,0.11c-3.78,0.42-7.37,2.37-7.62,6.66
		c-0.39,6.91-0.11,13.86-0.11,20.76c7.29,0,14.02,0,20.9,0C395.36,594.48,395.36,585.57,395.36,576.21z M405.49,746.15
		c0,12.61,0,24.91,0,37.35c11.95-4.15,21.66-23.07,19.38-37.35C418.49,746.15,412.1,746.15,405.49,746.15z M425.37,633.62
		c-6.88,0-13.3,0-19.88,0c0,9.15,0,18.01,0,26.99c6.79,0,13.19,0,19.88,0C425.37,651.54,425.37,642.8,425.37,633.62z M264.64,354.38
		c-7.83-4.55-15.61-9.06-23.82-13.83c-3.61,6.25-7.06,12.22-10.68,18.47c8.16,4.71,15.87,9.17,23.83,13.76
		C257.55,366.61,260.88,360.87,264.64,354.38z M561,398.7c8.26-4.78,15.85-9.18,23.82-13.79c-3.69-6.38-7.14-12.35-10.66-18.44
		c-8.19,4.74-15.8,9.15-23.82,13.8C553.96,386.53,557.35,392.39,561,398.7z M642.98,315.65c11.2-6.49,21.78-12.62,32.52-18.84
		c-9.55-8.53-30.04-7.6-42.43,1.7C636.27,304.05,639.5,309.64,642.98,315.65z M151.76,324.86c-9.96-5.77-19.7-11.43-29.45-17.05
		c-0.95-0.55-2-0.91-3.07-1.39c-2.81,11.87,8.18,29.11,22.63,35.56C145.07,336.44,148.29,330.87,151.76,324.86z M303.45,401.36
		c2.41-4.19,5.06-7.9,6.75-11.99c1.44-3.47,1.35-7.52-2.34-9.87c-5.7-3.64-11.65-6.89-17.82-10.48
		c-3.67,6.37-7.05,12.23-10.64,18.47C287.53,392.17,295.28,396.64,303.45,401.36z M500.91,408.8c2.35,4.08,4.21,8,6.7,11.45
		c2.51,3.47,6.22,5.33,10.43,3.15c5.87-3.05,11.5-6.54,17.57-10.04c-3.66-6.33-7.11-12.29-10.67-18.45
		C516.68,399.68,508.95,404.15,500.91,408.8z M374.49,716.14c7.35,0,14.08,0,20.75,0c0-8.79,0-17.18,0-25.46
		c-7.17,0-13.89,0-20.75,0C374.49,699.37,374.49,707.65,374.49,716.14z M405.38,603.74c7.03,0,13.41,0,20.23,0
		c0-6.8,0.45-13.3-0.23-19.68c-0.26-2.41-2.72-5.9-4.87-6.52c-4.73-1.37-9.89-1.23-15.13-1.72
		C405.38,585.73,405.38,594.62,405.38,603.74z M249.2,381.13c-8.05-4.65-15.76-9.11-23.83-13.78c-3.49,6.03-6.78,11.7-10.21,17.63
		c8.21,4.73,15.91,9.18,23.85,13.76C242.53,392.66,245.75,387.08,249.2,381.13z M622.32,338.62c-7.99,4.65-15.26,8.89-22.74,13.24
		c3.75,6.49,7.14,12.34,10.65,18.41c7.88-4.58,15.16-8.82,22.74-13.22C629.3,350.71,625.91,344.85,622.32,338.62z M204.75,344.35
		c3.63-6.26,7.02-12.12,10.68-18.43c-7.69-4.45-15.09-8.74-22.78-13.19c-3.68,6.37-7.07,12.23-10.65,18.44
		C189.7,335.64,197,339.86,204.75,344.35z M559.14,340.51c-8.27,4.79-15.85,9.18-23.79,13.79c3.53,6.1,6.8,11.76,10.21,17.64
		c8.26-4.81,15.93-9.27,23.8-13.86C565.8,351.97,562.56,346.41,559.14,340.51z M520.16,386.56c-3.57-6.17-6.8-11.75-10.18-17.59
		c-5.99,3.44-11.63,6.56-17.14,9.9c-4.1,2.49-4.63,6.53-3,10.48c1.56,3.76,4.03,7.15,6.33,11.09
		C504.27,395.76,511.97,391.3,520.16,386.56z M405.5,690.5c0,9,0,17.39,0,25.73c6.82,0,13.23,0,19.84,0c0-8.7,0-17.1,0-25.73
		C418.6,690.5,412.18,690.5,405.5,690.5z M264.42,413.43c6.02,3.47,11.58,7.15,17.58,9.9c2.07,0.95,6.14,0.56,7.66-0.91
		c3.57-3.45,6.15-7.93,9.47-12.46c-8.63-4.98-16.45-9.49-24.53-14.15C271.08,401.9,267.86,407.48,264.42,413.43z M617.54,330.31
		c-3.55-6.12-6.84-11.81-10.21-17.63c-7.88,4.56-15.17,8.78-22.76,13.17c3.49,6.05,6.72,11.63,10.18,17.62
		C602.49,339.01,609.91,334.72,617.54,330.31z M167.01,357.15c7.83,4.52,15.11,8.73,22.77,13.15c3.52-6.08,6.79-11.73,10.2-17.62
		c-7.88-4.55-15.18-8.76-22.78-13.16C173.78,345.44,170.56,351.01,167.01,357.15z"/>
	<g>
		<path d="M400.01,493.26c-17.6,0-31.14-13.37-31.19-30.81c-0.06-17.48,13.95-31.6,31.37-31.5c20.08,0.11,31.75,17.78,31.11,31.68
			C430.48,480.28,417.94,493.26,400.01,493.26z"/>
	</g>
</g>
</svg>
